<?xml version="1.0" encoding="UTF-8" standalone="no"?>
<!-- Created with Inkscape (http://www.inkscape.org/) -->

<svg
   width="512"
   height="160"
   viewBox="0 0 135.46666 42.333333"
   version="1.1"
   id="svg5"
   xmlns="http://www.w3.org/2000/svg"
   xmlns:svg="http://www.w3.org/2000/svg">
  <defs
     id="defs2">
    <rect
       x="94.191284"
       y="38.905094"
       width="531.36169"
       height="154.25529"
       id="rect3044" />
  </defs>
  <g
     id="layer1">
    <rect
       style="display:none;fill:#ffffff;fill-opacity:1;stroke:none;stroke-width:3.175;stroke-linecap:square"
       id="rect26206"
       width="135.46666"
       height="42.333332"
       x="1.110223e-16"
       y="0" />
    <g
       aria-label="flowblocks"
       transform="matrix(0.26458332,0,0,0.26458332,-21.856517,-3.5031612)"
       id="text3042"
       style="font-weight:600;font-size:96px;line-height:1.25;font-family:Metropolis;-inkscape-font-specification:'Metropolis, Semi-Bold';white-space:pre;shape-inside:url(#rect3044);display:inline">
      <path
         d="m 115.31141,73.464297 c 0,-3.36 2.208,-5.76 4.992,-5.76 2.016,0 3.84,0.768 4.896,1.824 l 3.36,-7.488 c -2.784,-2.4 -6.816,-3.936 -10.656,-3.936 -8.16,0 -13.92,5.952 -13.92,14.304 v 5.184 h -7.200004 v 9.696 h 7.200004 V 127.2243 h 11.328 V 87.288297 h 11.232 v -9.696 h -11.232 z"
         id="path3046"
         style="fill:#0c0910;fill-opacity:1" />
      <path
         d="m 135.37541,127.2243 h 11.712 V 60.120297 h -11.712 z"
         id="path3048"
         style="fill:#0c0910;fill-opacity:1" />
      <path
         d="m 182.31936,128.3763 c 14.592,0 26.496,-11.712 26.496,-26.016 0,-14.304003 -11.904,-25.920003 -26.496,-25.920003 -14.688,0 -26.688,11.616 -26.688,25.920003 0,14.304 12,26.016 26.688,26.016 z m 0,-9.984 c -8.352,0 -15.168,-7.2 -15.168,-16.032 0,-8.832003 6.816,-15.936003 15.168,-15.936003 8.256,0 14.976,7.104 14.976,15.936003 0,8.832 -6.72,16.032 -14.976,16.032 z"
         id="path3050"
         style="display:none;fill:#0c0910;fill-opacity:1" />
      <path
         d="m 227.63143,127.2243 h 10.656 l 10.56,-33.984003 10.56,33.984003 h 10.656 l 16.8,-49.632003 h -11.712 l -10.368,33.888003 -11.04,-33.888003 h -9.792 l -11.04,33.888003 -10.368,-33.888003 h -11.712 z"
         id="path3052"
         style="fill:#0c0910;fill-opacity:1" />
      <path
         d="m 323.63139,76.440297 c -7.296,0 -13.344,3.36 -17.184,8.928 v -25.248 h -11.712 V 127.2243 h 11.712 v -7.776 c 3.84,5.568 9.888,8.928 17.184,8.928 13.152,0 22.848,-10.752 22.848,-26.016 0,-15.168003 -9.696,-25.920003 -22.848,-25.920003 z m -3.168,41.952003 c -8.16,0 -14.016,-6.72 -14.016,-16.032 0,-9.312003 5.856,-15.936003 14.016,-15.936003 8.448,0 14.4,6.624 14.4,15.936003 0,9.312 -5.952,16.032 -14.4,16.032 z"
         id="path3054"
         style="fill:#058ed9;fill-opacity:1" />
      <path
         d="m 355.21531,127.2243 h 11.712 V 60.120297 h -11.712 z"
         id="path3056"
         style="fill:#058ed9;fill-opacity:1" />
      <path
         d="m 402.15926,128.3763 c 14.592,0 26.496,-11.712 26.496,-26.016 0,-14.304003 -11.904,-25.920003 -26.496,-25.920003 -14.688,0 -26.688,11.616 -26.688,25.920003 0,14.304 12,26.016 26.688,26.016 z m 0,-9.984 c -8.352,0 -15.168,-7.2 -15.168,-16.032 0,-8.832003 6.816,-15.936003 15.168,-15.936003 8.256,0 14.976,7.104 14.976,15.936003 0,8.832 -6.72,16.032 -14.976,16.032 z"
         id="path3058"
         style="display:none;fill:#058ed9;fill-opacity:1" />
      <path
         d="m 402.15926,128.3763 c 14.592,0 26.496,-11.712 26.496,-26.016 0,-14.304003 -11.904,-25.920003 -26.496,-25.920003 -14.688,0 -26.688,11.616 -26.688,25.920003 0,14.304 12,26.016 26.688,26.016 z m 0,-9.984 c -8.352,0 -15.168,-7.2 -15.168,-16.032 0,-8.832003 6.816,-15.936003 15.168,-15.936003 8.256,0 14.976,7.104 14.976,15.936003 0,8.832 -6.72,16.032 -14.976,16.032 z"
         id="path60671"
         style="font-weight:600;font-size:96px;line-height:1.25;font-family:Metropolis;-inkscape-font-specification:'Metropolis, Semi-Bold';white-space:pre;shape-inside:url(#rect3044);display:none;fill:#058ed9;fill-opacity:1" />
      <path
         d="m 460.62332,128.3763 c 7.872,0 14.4,-3.264 19.296,-8.352 l -7.872,-6.816 c -2.88,3.168 -7.104,5.184 -11.328,5.184 -8.256,0 -15.072,-7.296 -15.072,-16.032 0,-8.640003 6.816,-15.936003 14.976,-15.936003 4.224,0 8.352,2.016 11.136,4.992 l 7.872,-6.912 c -4.8,-4.896 -11.328,-8.064 -18.912,-8.064 -14.4,0 -26.688,11.808 -26.688,25.920003 0,14.112 12.192,26.016 26.592,26.016 z"
         id="path3060"
         style="fill:#058ed9;fill-opacity:1" />
      <path
         d="m 487.69523,127.2243 h 11.712 v -12.48 l 7.008,-7.296 13.92,19.776 h 13.728 l -19.776,-27.456003 20.352,-22.176 h -13.824 l -21.408,23.424003 V 60.120297 h -11.712 z"
         id="path3062"
         style="fill:#058ed9;fill-opacity:1" />
      <path
         d="m 560.94323,128.3763 c 11.52,0 19.488,-6.144 19.488,-15.744 0,-10.272 -9.12,-13.056003 -17.472,-15.360003 -7.584,-2.304 -10.656,-3.168 -10.656,-6.432 0,-3.456 3.456,-5.472 7.872,-5.472 4.512,0 9.696,1.92 14.4,4.896 l 4.512,-7.872 c -5.376,-3.552 -12.192,-5.952 -18.912,-5.952 -11.136,0 -18.72,6.336 -18.72,15.552 0,9.024003 6.816,12.000003 17.568,14.880003 5.952,1.536 10.56,2.88 10.56,6.816 0,3.456 -3.168,5.664 -8.448,5.664 -5.472,0 -11.712,-2.208 -16.992,-6.048 l -4.992,7.68 c 5.952,4.704 14.112,7.392 21.792,7.392 z"
         id="path3064"
         style="display:inline;fill:#058ed9;fill-opacity:1" />
    </g>
    <g
       id="layer2"
       style="display:none">
      <path
         d="m 24.832746,36.662253 v 3.0988 h 58.16597 v -3.0988 z"
         id="path6309"
         style="font-weight:600;font-size:96px;line-height:1.25;font-family:Metropolis;-inkscape-font-specification:'Metropolis, Semi-Bold';white-space:pre;shape-inside:url(#rect3044);fill:#0c0910;fill-opacity:1;stroke-width:0.478897" />
      <path
         d="m 176.46336,161.2403 h 11.712 v -42.848 h -11.712 z"
         id="path5263"
         style="font-weight:600;font-size:96px;line-height:1.25;font-family:Metropolis;-inkscape-font-specification:'Metropolis, Semi-Bold';white-space:pre;shape-inside:url(#rect3044);fill:#0c0910;fill-opacity:1;stroke-width:0.799081"
         transform="matrix(0.26458333,0,0,0.26458333,-21.856517,-3.5031613)" />
      <path
         d="m 86.097515,27.821467 h -3.098799 v 11.939586 h 3.098799 z"
         id="path12512"
         style="font-weight:600;font-size:96px;line-height:1.25;font-family:Metropolis;-inkscape-font-specification:'Metropolis, Semi-Bold';white-space:pre;shape-inside:url(#rect3044);fill:#0c0910;fill-opacity:1;stroke-width:0.216971" />
    </g>
    <g
       id="layer3"
       style="display:inline">
      <path
         id="path48139"
         style="font-weight:600;font-size:96px;line-height:1.25;font-family:Metropolis;-inkscape-font-specification:'Metropolis, Semi-Bold';white-space:pre;shape-inside:url(#rect3044);fill:#0c0910;fill-opacity:1;stroke-width:0.604388"
         d="M 93.855469,105.15234 V 138.56641 148 v 2.27734 h 118.273441 11.71093 v -11.71093 -12.80079 h -11.71093 v 12.80079 H 105.56836 v -33.41407 z"
         transform="scale(0.26458333)" />
      <path
         id="path51230"
         style="font-weight:600;font-size:96px;line-height:1.25;font-family:Metropolis;-inkscape-font-specification:'Metropolis, Semi-Bold';white-space:pre;shape-inside:url(#rect3044);fill:#058ed9;fill-opacity:1;stroke-width:0.972488"
         d="M 212.12891,9.7226562 V 35.097656 h 11.71093 V 21.433594 h 89.85547 v 51.75 H 325.4082 V 9.7226562 H 223.83984 Z"
         transform="scale(0.26458333)" />
    </g>
    <path
       id="path3688"
       style="display:inline;fill:#058ed9;fill-opacity:1;stroke-width:12;stroke-linecap:square"
       d="m 319.45508,63.199219 a 25.968004,25.968004 0 0 0 -25.9668,25.96875 25.968004,25.968004 0 0 0 25.9668,25.968751 25.968004,25.968004 0 0 0 25.96875,-25.968751 25.968004,25.968004 0 0 0 -25.96875,-25.96875 z m 0,9.984375 a 14.256,15.984 0 0 1 14.25781,15.984375 14.256,15.984 0 0 1 -14.25781,15.984371 14.256,15.984 0 0 1 -14.25586,-15.984371 14.256,15.984 0 0 1 14.25586,-15.984375 z"
       transform="scale(0.26458333)" />
    <path
       id="path13565"
       style="display:inline;fill:#0c0910;fill-opacity:1;stroke-width:3.175;stroke-linecap:square"
       d="m 26.38211,16.72146 a 6.870701,6.870701 0 0 0 -6.870382,6.870898 6.870701,6.870701 0 0 0 6.870382,6.870899 6.870701,6.870701 0 0 0 6.870899,-6.870899 6.870701,6.870701 0 0 0 -6.870899,-6.870898 z m 0,2.641699 a 3.7719,4.2290999 0 0 1 3.772379,4.229199 3.7719,4.2290999 0 0 1 -3.772379,4.229198 3.7719,4.2290999 0 0 1 -3.771863,-4.229198 3.7719,4.2290999 0 0 1 3.771863,-4.229199 z" />
  </g>
</svg>
